# xmcd CD database file
#
# Track frame offsets:
#	150
#	19385
#	44031
#	65852
#	96790
#	122274
#	141522
#	164205
#	195106
#	210571
#	239294
#
# Disc length: 3470 seconds
#
# Revision: 0
# Processed by: cddbd v1.5.2PL0 Copyright (c) Steve Scherf et al.
# Submitted via: CDex 1.70beta2
#
DISCID=a40d8c0b
DTITLE=Jazz4 - Lovers
DYEAR=2002
DGENRE=Jazz
TTITLE0=Easy Living - Warren Vaché and Bill Chaplap
TTITLE1=But Beautiful - Harry Allen Quartet
TTITLE2=I love you, Samantha - James Chirillo
TTITLE3=Ballade für Juliane - Martin Sasse Trio
TTITLE4=Say you care - Eric Reed
TTITLE5=East of the sun - Byron Stripling
TTITLE6=Lover man - Dylan Cramer
TTITLE7=Dear Rudy - Terell Stafford
TTITLE8=Everything i have is yours - Terry Richards Alden and Howard Alden
TTITLE9=Li'l Darlin' - Clark Terry
TTITLE10=Every time we say Goodbye - John Goldsby
EXTD=YEAR: 2002
EXTT0=
EXTT1=
EXTT2=
EXTT3=
EXTT4=
EXTT5=
EXTT6=
EXTT7=
EXTT8=
EXTT9=
EXTT10=
PLAYORDER=
